<?xml version="1.0" standalone="no"?>
<!DOCTYPE svg PUBLIC "-//W3C//DTD SVG 20010904//EN" "http://www.w3.org/TR/2001/REC-SVG-20010904/DTD/svg10.dtd">
<svg version="1.0" xmlns="http://www.w3.org/2000/svg" width="2126px" height="576px" viewBox="0 0 2126 576">
<g transform="translate(0,576) scale(0.1,-0.1)" fill="#ffffff" stroke="none">
<path d="M4282 4562 c-2 -314 -2 -312 -66 -312 l-36 0 0 -300 0 -300 -30 0 -30 0 0 -350 0 -350 -40 0 -40 0 0 -426 c0 -411 -1 -426 -19 -431 -11 -3 -21 -13 -24 -24 -4 -16 -14 -19 -60 -19 -58 0 -73 -9 -79 -50 -3 -22 -8 -25 -43 -25 l-40 0 -3 268 -2 267 -43 0 c-24 0 -48 5 -55 12 -9 9 -12 82 -12 265 l0 253 -40 17 c-34 15 -39 22 -42 53 l-3 35 -77 3 c-73 3 -78 1 -78 -18 0 -16 -6 -20 -30 -20 -27 0 -30 -3 -30 -30 0 -16 -4 -30 -10 -30 -6 0 -10 -97 -10 -270 l0 -270 -30 0 -30 0 0 -60 c0 -53 -2 -60 -20 -60 -13 0 -20 -7 -20 -20 0 -19 -7 -20 -90 -20 l-90 0 0 -90 0 -90 -70 0 -70 0 0 -70 c0 -64 -9 -86 -25 -60 -3 6 -17 10 -30 10 -18 0 -24 6 -27 28 l-3 27 -164 3 c-97 1 -170 7 -177 13 -8 7 -14 41 -16 87 l-3 77 -177 3 -178 2 0 -90 0 -90 -39 0 c-36 0 -40 3 -43 28 l-3 27 -107 3 -108 3 0 -31 c0 -23 4 -30 20 -30 16 0 20 -7 20 -30 l0 -30 -130 0 c-80 0 -130 -4 -130 -10 0 -5 -18 -10 -40 -10 l-40 0 0 -120 0 -120 -169 0 c-160 0 -169 1 -174 20 -5 18 -14 20 -101 20 l-96 0 0 123 c0 111 -2 126 -20 142 -11 10 -20 26 -20 35 0 26 -30 80 -45 80 -7 0 -15 9 -18 20 -5 19 -14 20 -171 20 -159 0 -166 -1 -166 -20 0 -11 -4 -20 -10 -20 -5 0 -10 -9 -10 -20 0 -11 -4 -20 -10 -20 -5 0 -10 -13 -10 -30 0 -21 -5 -30 -16 -30 -39 0 -44 -23 -44 -184 0 -97 -4 -156 -10 -156 -6 0 -10 -30 -10 -70 0 -63 -2 -70 -20 -70 -16 0 -20 7 -20 30 0 23 -4 30 -20 30 -16 0 -20 7 -20 30 0 27 -3 30 -30 30 -23 0 -30 -4 -30 -20 0 -18 -7 -20 -60 -20 -53 0 -60 2 -60 20 0 17 -7 20 -40 20 -33 0 -40 -3 -40 -20 0 -15 -7 -20 -26 -20 -57 0 -54 44 -54 -869 l0 -841 10620 0 10620 0 0 515 c0 508 0 515 -20 515 -13 0 -20 7 -20 20 0 13 -7 20 -20 20 -20 0 -20 7 -20 590 0 583 0 590 -20 590 -11 0 -20 5 -20 10 0 6 -18 10 -40 10 -22 0 -40 5 -40 10 0 13 -167 13 -175 0 -3 -5 -34 -10 -69 -10 -34 0 -66 -4 -71 -9 -6 -5 -21 -11 -35 -13 l-25 -3 -3 -547 -2 -548 -260 0 -260 0 0 -30 0 -30 -80 0 -80 0 0 366 c0 303 -2 368 -14 380 -10 10 -38 14 -90 14 l-76 0 0 100 c0 93 -1 100 -20 100 -16 0 -20 7 -20 30 l0 30 -73 0 c-80 0 -107 -15 -107 -57 0 -12 -8 -23 -20 -26 -19 -5 -20 -14 -20 -259 l0 -253 -40 -18 -40 -17 0 -63 c0 -70 -10 -87 -52 -87 l-28 0 0 295 0 296 -25 24 c-21 22 -33 25 -93 25 -56 0 -72 -4 -86 -19 -10 -11 -30 -21 -45 -23 l-26 -3 -3 -108 c-1 -60 -7 -107 -12 -107 -6 0 -10 9 -10 20 0 13 -7 20 -20 20 -17 0 -20 7 -20 40 l0 40 -40 0 -40 0 0 41 c0 33 -3 40 -17 37 -12 -2 -20 -16 -24 -38 -10 -63 -20 -79 -48 -82 -22 -3 -26 -8 -29 -40 -3 -35 -5 -37 -40 -40 -35 -3 -37 -5 -40 -41 -2 -20 -7 -35 -13 -32 -5 4 -9 154 -9 371 l0 364 -30 0 c-16 0 -30 5 -30 10 0 6 -18 10 -40 10 -33 0 -40 3 -40 20 0 17 -7 20 -40 20 -22 0 -40 5 -40 10 0 13 -87 13 -95 0 -8 -13 -65 -13 -65 0 0 7 -48 10 -137 8 l-138 -3 -3 -38 c-3 -31 -7 -37 -26 -37 -12 0 -28 -6 -35 -12 -11 -10 -14 -10 -18 0 -3 6 -13 12 -24 12 -14 0 -19 7 -19 30 l0 30 -66 0 c-57 0 -67 -3 -71 -20 -3 -11 -13 -20 -23 -20 -9 0 -31 -7 -48 -16 l-32 -15 0 -189 c0 -115 4 -191 10 -195 6 -3 10 -19 10 -36 0 -25 -4 -29 -26 -29 -17 0 -28 6 -31 19 -3 12 -15 21 -32 23 l-26 3 -3 167 -2 167 -68 3 -67 3 -3 193 c-3 201 -7 222 -46 222 -9 0 -16 5 -16 10 0 6 -9 10 -20 10 -19 0 -20 7 -20 184 0 113 4 187 10 191 6 3 10 33 10 67 0 52 -2 59 -15 48 -12 -10 -15 -52 -17 -229 l-3 -216 -42 -3 -43 -3 0 230 c0 199 -2 231 -15 231 -13 0 -15 -31 -15 -223 0 -124 -4 -227 -9 -233 -5 -5 -11 -25 -13 -44 -3 -30 -7 -35 -30 -38 l-28 -3 -2 -367 -3 -367 -50 0 -50 0 -5 40 c-3 26 -8 36 -13 27 -6 -9 -13 -10 -21 -3 -6 5 -36 11 -66 13 l-55 3 -3 110 -3 110 -20 -43 c-26 -55 -53 -55 -57 1 -4 44 -29 51 -34 9 -4 -38 -42 -38 -46 1 -3 27 -32 40 -32 14 0 -20 -33 -47 -58 -47 -11 0 -24 -4 -27 -10 -3 -5 -34 -10 -68 -10 l-62 0 -18 -40 c-16 -38 -19 -40 -62 -40 l-44 0 -3 -157 -3 -158 -30 -5 c-20 -3 -34 -14 -43 -33 -9 -18 -21 -27 -37 -27 -13 0 -27 -5 -30 -10 -19 -31 -25 23 -25 245 0 152 -4 246 -10 250 -5 3 -10 17 -10 29 0 15 -7 26 -20 29 -11 3 -20 12 -20 21 0 9 -7 16 -15 16 -10 0 -15 -11 -15 -35 0 -28 -5 -37 -22 -44 -26 -10 -52 -37 -61 -63 -5 -14 -17 -18 -50 -18 -24 0 -48 -5 -54 -11 -6 -6 -26 -9 -44 -7 l-34 3 -3 68 c-2 51 -6 67 -17 67 -12 0 -15 -20 -15 -103 0 -57 -4 -107 -9 -112 -5 -6 -11 -26 -13 -45 -2 -19 -7 -34 -13 -33 -6 2 -11 165 -13 458 l-2 454 -68 3 -67 3 -6 55 c-10 99 -11 100 -95 100 -40 0 -76 5 -79 10 -3 6 -30 10 -60 10 -30 0 -57 -4 -60 -10 -4 -6 -158 -10 -431 -10 l-424 0 0 -70 c0 -63 -2 -70 -20 -70 -19 0 -20 -8 -22 -507 -3 -500 -3 -508 -23 -508 -20 0 -20 8 -23 958 l-2 957 -54 0 c-45 0 -54 3 -59 20 -4 17 -14 20 -60 20 -46 0 -55 3 -60 20 -3 14 -14 20 -31 20 -19 0 -26 -5 -26 -20 0 -18 -7 -20 -80 -20 -47 0 -80 -4 -80 -10 0 -6 -30 -10 -70 -10 l-70 0 -2 -887 -3 -888 -27 -3 c-22 -3 -28 -9 -28 -27 0 -13 -4 -27 -10 -30 -7 -4 -10 135 -10 410 0 408 0 417 -20 422 -17 5 -20 14 -20 64 0 40 -6 70 -20 94 -11 20 -20 45 -20 56 0 12 -10 23 -25 29 -15 6 -32 27 -45 55 -11 25 -27 45 -35 45 -12 0 -15 17 -15 84 0 47 -4 88 -10 91 -6 4 -10 -27 -10 -84 0 -54 -4 -91 -10 -91 -5 0 -10 -9 -10 -20 0 -11 -4 -20 -10 -20 -5 0 -10 -9 -10 -20 0 -13 -7 -20 -20 -20 -13 0 -20 -7 -20 -20 0 -11 -4 -20 -10 -20 -5 0 -10 -7 -10 -16 0 -20 -24 -44 -44 -44 -12 0 -16 -10 -16 -40 0 -22 -4 -40 -10 -40 -5 0 -10 -18 -10 -40 0 -22 -4 -40 -10 -40 -6 0 -10 -80 -10 -220 0 -140 4 -220 10 -220 6 0 10 -83 10 -230 l0 -230 -30 0 -30 0 0 193 c0 114 -4 197 -10 203 -6 6 -11 208 -12 544 l-3 535 -27 3 -28 3 0 154 c0 92 -4 156 -10 160 -7 4 -10 -50 -10 -154 l0 -161 -50 0 c-49 0 -50 -1 -50 -30 l0 -30 -66 0 c-43 0 -70 -5 -80 -14 -12 -12 -14 -85 -14 -440 l0 -426 -100 0 -100 0 0 -30 c0 -30 0 -30 -59 -30 -50 0 -59 3 -64 20 -4 16 -14 20 -51 20 -44 0 -46 -1 -46 -30 l0 -30 -60 0 -60 0 0 -370 0 -370 -30 0 -30 0 0 234 c0 146 -4 237 -10 241 -5 3 -10 17 -10 30 0 16 -9 28 -27 37 -17 8 -29 23 -31 38 -2 14 -12 34 -21 45 -10 11 -21 28 -24 38 -4 9 -13 17 -21 17 -7 0 -16 9 -19 20 -3 11 -12 20 -21 20 -13 0 -16 -13 -16 -80 l0 -80 -30 0 c-29 0 -30 1 -30 49 0 28 5 53 10 56 6 3 10 19 10 35 0 16 -4 32 -10 35 -6 4 -10 -5 -10 -20 0 -33 -21 -55 -54 -55 -19 0 -26 -5 -26 -20 0 -11 -4 -20 -10 -20 -5 0 -10 -9 -10 -20 0 -13 -7 -20 -20 -20 -13 0 -20 -7 -20 -20 0 -11 -4 -20 -10 -20 -5 0 -10 -13 -10 -30 0 -16 -4 -30 -10 -30 -6 0 -10 -40 -10 -100 0 -60 -4 -100 -10 -100 -6 0 -10 49 -10 126 0 113 -2 126 -18 131 -10 2 -25 22 -35 44 -15 35 -21 39 -52 39 -28 0 -35 -4 -35 -20 0 -18 -7 -20 -60 -20 l-60 0 0 144 0 145 -32 15 c-23 12 -62 16 -150 16 l-118 0 0 -40 0 -40 -50 0 c-49 0 -50 -1 -50 -30 l0 -30 -240 0 -240 0 0 -60 c0 -33 -4 -60 -10 -60 -5 0 -10 16 -10 36 0 38 -18 64 -44 64 -9 0 -16 5 -16 10 0 6 -22 10 -50 10 l-50 0 0 40 c0 22 -4 40 -10 40 -5 0 -10 9 -10 20 0 28 -50 28 -57 0 -4 -16 -14 -20 -47 -20 -23 0 -46 -4 -52 -10 -5 -5 -61 -11 -124 -12 l-115 -3 -3 -197 c-2 -190 -3 -198 -22 -198 -19 0 -20 -7 -20 -110 0 -103 -1 -110 -20 -110 -19 0 -20 7 -20 136 0 124 -2 138 -20 154 -19 17 -20 32 -22 501 l-3 484 -27 3 c-23 3 -27 8 -30 40 l-3 37 -165 0 -165 0 -3 -236 c-2 -226 -3 -237 -22 -242 -15 -4 -20 -14 -20 -41 0 -31 -3 -36 -23 -36 -42 0 -57 -29 -57 -108 0 -65 -2 -72 -20 -72 -18 0 -20 7 -20 70 l0 70 -70 0 c-40 0 -70 4 -70 10 0 6 -40 10 -100 10 -60 0 -100 4 -100 10 0 6 -9 10 -20 10 -11 0 -20 5 -20 10 0 6 -45 10 -116 10 -107 0 -116 -1 -121 -20 -5 -19 -14 -20 -144 -20 -86 0 -139 4 -139 10 0 6 -7 10 -16 10 -20 0 -44 24 -44 44 0 9 -4 16 -10 16 -5 0 -10 9 -10 20 0 17 -7 20 -40 20 -33 0 -40 3 -40 20 0 16 -7 20 -30 20 l-30 0 0 140 0 140 -84 0 c-47 0 -88 -4 -91 -10 -3 -5 -40 -10 -82 -10 -66 0 -75 -2 -80 -20 -5 -19 -14 -20 -118 -20 -96 0 -114 -3 -128 -18 -15 -17 -17 -56 -17 -360 l0 -342 -50 0 -50 0 0 60 c0 33 4 60 10 60 6 0 10 14 10 30 0 29 -1 30 -50 30 -49 0 -50 1 -50 30 l0 30 -140 0 -140 0 0 180 0 180 -80 0 c-47 0 -80 4 -80 10 0 6 -22 10 -50 10 -27 0 -50 5 -50 10 0 6 -58 10 -154 10 -145 0 -154 -1 -159 -20 -5 -18 -14 -20 -111 -20 l-106 0 -2 -297 c-2 -190 -7 -298 -13 -298 -5 0 -11 16 -13 35 -2 19 -8 41 -14 47 -13 16 -70 17 -85 2 -5 -5 -30 -9 -54 -7 l-44 3 -3 47 -3 47 -87 3 c-86 3 -87 3 -90 30 l-3 27 -107 3 -107 3 -3 186 c-2 176 -4 187 -22 192 -13 3 -20 14 -20 30 0 21 -6 26 -27 29 l-28 3 -3 128 -3 127 -24 0 -25 0 0 -118 c0 -138 -14 -182 -57 -182 -16 0 -27 7 -30 19 -3 11 -13 21 -24 24 -17 5 -19 15 -19 121 l0 116 -25 0 -25 0 0 -116 c0 -106 -2 -116 -19 -121 -14 -4 -21 -15 -23 -42 -3 -31 -7 -36 -30 -39 l-28 -3 0 -213 c0 -124 -4 -216 -10 -222 -5 -5 -11 -79 -12 -164 -3 -147 -4 -155 -23 -155 -19 0 -20 8 -23 116 -2 101 -5 119 -22 134 -12 11 -20 31 -20 49 0 49 -28 56 -225 56 -116 0 -180 -4 -198 -12 l-27 -13 -2 -205 -3 -205 -27 -3 c-21 -3 -27 -9 -30 -30 -2 -19 -9 -27 -23 -27 -20 0 -20 8 -23 484 -1 324 -6 488 -13 497 -6 7 -23 14 -37 16 l-27 3 -3 336 -2 337 -23 8 c-12 4 -47 10 -77 13 l-55 6 -3 285 c-2 285 -2 285 -25 295 -12 6 -26 20 -32 32 -5 12 -17 24 -27 26 -15 4 -18 21 -21 133 l-3 129 -2 -133 -2 -133 -32 3 -33 3 -5 265 -6 265 -2 -283z"/>
</g>
</svg> 